<svg xmlns="http://www.w3.org/2000/svg" width="1350.843" height="1000.11" viewBox="0 0 1350.843 1000.11"><g transform="translate(-569.157 7)"><path d="M543.157,174s6.261,200.5,205.053,205.281,349.059,81.283,388.191,210.381,104.874,215.163,226.966,219.944,172.182,87.659,184.7,181.693c13.773,101.3,131.229,182.53,230.259,182.752,58.482.131,115.67,0,115.67,0V174Z" transform="translate(26 -181)" fill="#173241"/><path d="M543.157,174S583.764,323.168,765.1,327.53s297.454,106.936,333.15,224.717,100.989,182.7,212.361,187.061S1480.879,846.37,1492.3,932.161c12.564,92.422,87.24,154.018,177.575,154.221,53.347.12,105.514,0,105.514,0V174Z" transform="translate(133 -174.325)" fill="#163546"/></g></svg>