<svg xmlns="http://www.w3.org/2000/svg" width="314.47" height="77" viewBox="0 0 314.47 77"><g transform="translate(0 2.5)"><text transform="translate(61.47 56.5)" fill="#245e7e" font-size="64.16" font-family="RussoOne-Regular, Russo One"><tspan x="0" y="0">Kodario</tspan></text><g transform="translate(0 1.16)"><rect width="23.08" height="23.08" rx="3.86" transform="translate(0 10.38)" fill="#122f3f"/><rect width="23.08" height="23.08" rx="3.86" transform="translate(0 36.24)" fill="#245e7e"/><path d="M44,36.13a5.16,5.16,0,0,1,3.79,1.15A4.27,4.27,0,0,1,49,39.83v16a3.75,3.75,0,0,1-.16,1.1,3,3,0,0,1-1.08,1.65c-4.07,2.8-14-1.74-17.3-6-4-5.1-5.67-12.18-4-14.66,1.35-2,4.21-1.74,6.33-1.73h8.64C42.2,36.21,43.1,36.13,44,36.13Z" fill="#122f3f"/><path d="M25.72,15.3a5.2,5.2,0,0,1,1.15-3.79,4.29,4.29,0,0,1,2.55-1.17h16a3.64,3.64,0,0,1,1.09.16,2.93,2.93,0,0,1,1.65,1.08c2.8,4.07-1.74,14-6,17.3-5.1,3.95-12.17,5.67-14.65,4-2-1.35-1.75-4.21-1.74-6.33,0-2.87.05-5.75,0-8.63C25.81,17.1,25.72,16.2,25.72,15.3Z" fill="#245e7e"/></g></g></svg>