<svg xmlns="http://www.w3.org/2000/svg" width="311.758" height="49.104" viewBox="0 0 311.758 49.104"><g transform="translate(0 -10.34)"><path d="M15.4,0H3.85V-44.912H15.4v17.644h5.774L31.182-44.912h12.19L30.8-22.777,43.308,0H31.118L21.173-18.286H15.4ZM81.227-9.624A10.188,10.188,0,0,1,78.5-2.085,10.188,10.188,0,0,1,70.961.642H56.2a10.188,10.188,0,0,1-7.539-2.727,10.188,10.188,0,0,1-2.727-7.539V-24.381a10.188,10.188,0,0,1,2.727-7.539A10.188,10.188,0,0,1,56.2-34.646H70.961A10.188,10.188,0,0,1,78.5-31.92a10.188,10.188,0,0,1,2.727,7.539ZM70-23.418a2.268,2.268,0,0,0-2.566-2.566h-7.7a2.268,2.268,0,0,0-2.566,2.566v12.832A2.268,2.268,0,0,0,59.733-8.02h7.7A2.268,2.268,0,0,0,70-10.586ZM111.061,0l-.642-3.208a22.952,22.952,0,0,1-6.191,2.919,19.683,19.683,0,0,1-5.357.93H95.983A9.452,9.452,0,0,1,88.99-1.989a9.452,9.452,0,0,1-2.631-6.993V-23.739a10.188,10.188,0,0,1,2.727-7.539A10.188,10.188,0,0,1,96.625-34h13.153V-44.912h11.228V0Zm-8.982-8.662a27.252,27.252,0,0,0,7.7-1.283v-15.4h-9.624a2.268,2.268,0,0,0-2.566,2.566v11.87a2.176,2.176,0,0,0,.642,1.6,2.176,2.176,0,0,0,1.6.642Zm38.817.321a27.252,27.252,0,0,0,7.7-1.283v-3.85h-9.3a2.176,2.176,0,0,0-1.6.642,2.176,2.176,0,0,0-.642,1.6v.642a2.176,2.176,0,0,0,.642,1.6,2.176,2.176,0,0,0,1.6.642Zm-11.87-25.022A196.669,196.669,0,0,1,150.2-34.646a9.452,9.452,0,0,1,6.993,2.631,9.452,9.452,0,0,1,2.631,6.993V0h-9.945l-.642-3.208a22.952,22.952,0,0,1-6.191,2.919,19.683,19.683,0,0,1-5.357.93h-2.246a9.452,9.452,0,0,1-6.993-2.631,9.452,9.452,0,0,1-2.631-6.993V-11.87a9.452,9.452,0,0,1,2.631-6.993,9.452,9.452,0,0,1,6.993-2.631h13.153V-24.06a2.176,2.176,0,0,0-.642-1.6,2.176,2.176,0,0,0-1.6-.642q-4.17,0-9.207.385t-8.116.577Zm56.14,8.662a20.35,20.35,0,0,0-8.341,1.925V0H165.6V-34h9.945l.642,4.17q5.518-4.812,11.549-4.812h2.887V-24.7Zm24.06-8.02V0H198V-24.06h-4.812v-8.662ZM198-45.554h11.228v8.982H198Zm52.29,35.93a10.188,10.188,0,0,1-2.727,7.539A10.188,10.188,0,0,1,240.023.642H225.266a10.188,10.188,0,0,1-7.539-2.727A10.188,10.188,0,0,1,215-9.624V-24.381a10.188,10.188,0,0,1,2.727-7.539,10.188,10.188,0,0,1,7.539-2.727h14.757a10.188,10.188,0,0,1,7.539,2.727,10.188,10.188,0,0,1,2.727,7.539ZM239.06-23.418a2.268,2.268,0,0,0-2.566-2.566h-7.7a2.268,2.268,0,0,0-2.566,2.566v12.832a2.268,2.268,0,0,0,2.566,2.566h7.7a2.268,2.268,0,0,0,2.566-2.566Z" transform="translate(61.47 56.5)" fill="#245e7e"/><rect width="23.08" height="23.08" rx="3.86" transform="translate(0 10.38)" fill="#122f3f"/><rect width="23.08" height="23.08" rx="3.86" transform="translate(0 36.24)" fill="#245e7e"/><path d="M44,36.13a5.16,5.16,0,0,1,3.79,1.15A4.27,4.27,0,0,1,49,39.83v16a3.75,3.75,0,0,1-.16,1.1,3,3,0,0,1-1.08,1.65c-4.07,2.8-14-1.74-17.3-6-4-5.1-5.67-12.18-4-14.66,1.35-2,4.21-1.74,6.33-1.73h8.64C42.2,36.21,43.1,36.13,44,36.13Z" fill="#122f3f"/><path d="M25.72,15.3a5.2,5.2,0,0,1,1.15-3.79,4.29,4.29,0,0,1,2.55-1.17h16a3.64,3.64,0,0,1,1.09.16,2.93,2.93,0,0,1,1.65,1.08c2.8,4.07-1.74,14-6,17.3-5.1,3.95-12.17,5.67-14.65,4-2-1.35-1.75-4.21-1.74-6.33,0-2.87.05-5.75,0-8.63C25.81,17.1,25.72,16.2,25.72,15.3Z" fill="#245e7e"/></g></svg>