<svg xmlns="http://www.w3.org/2000/svg" width="245.248" height="208.32" viewBox="0 0 245.248 208.32"><path d="M23.293,497.459c12.367,7.932,27.819,7.531,42.674,5.672q3.114-.392,6.172-.841h.039c.1,0,.2-.03.3-.039l1.258-.189-.087.195-.278.6c.1-.2.2-.4.3-.6.03-.06.063-.12.093-.183,3.5-6.929,6.953-14.107,7.516-21.836.581-8.022-2.746-16.892-9.969-20.428a14.333,14.333,0,0,0-2.971-1.06c-.425-.1-.856-.183-1.291-.252a15.188,15.188,0,0,0-16.574,20.668c-6.273-5.773-5.69-15.724-4.1-24.1s3.593-17.709-.979-24.908a16.428,16.428,0,0,0-11.412-7.133l-.425-.066a22.168,22.168,0,0,0-15.754,3.647C9.333,432.6,5.4,443.316,4.5,453.653,3.026,470.293,9.231,488.439,23.293,497.459Z" transform="translate(-3.005 -296.143)" fill="#f2f2f2"/><path d="M74.12,471.273a37.65,37.65,0,0,0,3.171,10.463,32.762,32.762,0,0,0,5.519,8.013,41.972,41.972,0,0,0,16.709,10.726,60.346,60.346,0,0,0,14.862,3.144q3.114-.392,6.172-.841h.039c.1,0,.2-.03.3-.039l1.258-.189-.087.195-.278.6c.1-.2.2-.4.3-.6.03-.06.063-.12.093-.183a33.056,33.056,0,0,1-5.429-43.33c-.425-.1-.856-.183-1.291-.252a34.843,34.843,0,0,0-2.893,5.432,34.182,34.182,0,0,0-1.8,21.39,34.958,34.958,0,0,0,9.78,16.925c-.4,0-.8-.018-1.2-.033a61.19,61.19,0,0,1-21.92-4.342,38.978,38.978,0,0,1-15.236-11.181c-4.393-5.42-6.561-12.1-7.244-18.982a81.5,81.5,0,0,1,1.123-22.2,92.745,92.745,0,0,1,6.636-21.62.668.668,0,0,0-.3-.865.56.56,0,0,0-.425-.066.5.5,0,0,0-.3.3c-.38.853-.755,1.707-1.111,2.569A93.862,93.862,0,0,0,74.428,448.7,74.66,74.66,0,0,0,74.12,471.273Z" transform="translate(-51.419 -296.632)" fill="#fff"/><path d="M324.465,49.493h-1.144V18.144A18.146,18.146,0,0,0,305.174,0H238.757A18.147,18.147,0,0,0,220.61,18.144V190.132a18.146,18.146,0,0,0,18.144,18.144h66.418a18.144,18.144,0,0,0,18.144-18.144V71.808h1.147Z" transform="translate(-154.549)" fill="#3f3d56"/><path d="M317.621,15.753h-8.669a6.444,6.444,0,0,1-5.962,8.87H264.939a6.438,6.438,0,0,1-5.962-8.87h-8.085A13.55,13.55,0,0,0,237.33,29.3h0V201.039a13.55,13.55,0,0,0,13.55,13.55h66.741a13.55,13.55,0,0,0,13.55-13.55h0V29.3a13.55,13.55,0,0,0-13.55-13.55Z" transform="translate(-166.262 -11.034)" fill="#fff"/><path d="M740.156,613.375c-4.812,3.468-11.05,3.641-17.069,3.216q-1.261-.09-2.506-.2h-.12l-.509-.048.039.075.126.237-.135-.234c0-.024-.03-.048-.042-.072-1.563-2.719-3.111-5.537-3.507-8.639-.407-3.222.74-6.869,3.575-8.453a5.691,5.691,0,0,1,1.174-.491c.168-.054.341-.093.515-.132a6.13,6.13,0,0,1,7.13,7.971c2.4-2.464,1.955-6.462,1.126-9.8s-1.836-7.061-.147-10.061a6.686,6.686,0,0,1,4.447-3.126l.171-.036a8.945,8.945,0,0,1,6.429,1.129c3.545,2.234,5.366,6.468,5.956,10.615C747.735,601.984,745.627,609.435,740.156,613.375Z" transform="translate(-501.843 -408.7)" fill="#f2f2f2"/><path d="M746.964,603.084a15.224,15.224,0,0,1-1.051,4.285,13.176,13.176,0,0,1-2.051,3.351,16.943,16.943,0,0,1-6.5,4.689,24.438,24.438,0,0,1-5.923,1.59q-1.261-.09-2.506-.2h-.12l-.509-.048.039.075.126.237-.135-.234c0-.024-.03-.048-.042-.072a13.349,13.349,0,0,0,1.243-17.584c.168-.054.341-.093.515-.132a14.37,14.37,0,0,1,1.285,2.129,13.775,13.775,0,0,1,1.2,8.582,14.11,14.11,0,0,1-3.572,7.037l.482-.039a24.68,24.68,0,0,0,8.741-2.228,15.721,15.721,0,0,0,5.9-4.839,14.13,14.13,0,0,0,2.506-7.813,32.9,32.9,0,0,0-.934-8.921,37.379,37.379,0,0,0-3.147-8.573.269.269,0,0,1,.108-.356.243.243,0,0,1,.171-.036.207.207,0,0,1,.132.114c.171.335.341.671.5,1.012A37.878,37.878,0,0,1,746.383,594,31.222,31.222,0,0,1,746.964,603.084Z" transform="translate(-510.205 -409.108)" fill="#fff"/><path d="M244.949,694.209H.3a.3.3,0,1,1,0-.6H244.949a.3.3,0,0,1,0,.6Z" transform="translate(0 -485.91)" fill="#3f3d56"/><path d="M626.937,651.171h-3.671L621.52,637.01h5.42Z" transform="translate(-435.407 -446.259)" fill="#ffb8b8"/><path d="M608.169,680.79h7.079v4.459H603.71A4.459,4.459,0,0,1,608.169,680.79Z" transform="translate(-422.93 -476.929)" fill="#2f2e41"/><path d="M672.937,651.171h-3.671L667.52,637.01h5.42Z" transform="translate(-467.632 -446.259)" fill="#ffb8b8"/><path d="M654.169,680.79h7.079v4.459H649.71A4.459,4.459,0,0,1,654.169,680.79Z" transform="translate(-455.156 -476.929)" fill="#2f2e41"/><path d="M677.03,451.758a3.219,3.219,0,0,1-.967-4.447,3.124,3.124,0,0,1,.347-.446L674,412.56l6.962.674.186,33.6a3.234,3.234,0,0,1-4.117,4.929Z" transform="translate(-472.172 -289.02)" fill="#ffb8b8"/><path d="M625.886,558.056l-4.04-.192a1.348,1.348,0,0,1-1.285-1.336l-.281-40.893a1.344,1.344,0,0,1,1.339-1.356,1.165,1.165,0,0,1,.2.015l16.17,2.345a1.338,1.338,0,0,1,1.153,1.324l2.1,37.892a1.348,1.348,0,0,1-1.339,1.357h-4.375a1.345,1.345,0,0,1-1.333-1.138l-2.7-17.09a1.048,1.048,0,0,0-2.078.039L627.29,556.87a1.357,1.357,0,0,1-1.339,1.2Z" transform="translate(-434.538 -360.28)" fill="#2f2e41"/><path d="M627.725,429.3a20.379,20.379,0,0,0-7.69-2.635,1.32,1.32,0,0,1-.916-.5,1.341,1.341,0,0,1-.279-1.018l3.875-28.762a9.945,9.945,0,0,1,5.8-7.786,9.678,9.678,0,0,1,9.4.737c.132.09.264.18.389.272a9.933,9.933,0,0,1,3.785,10.352c-2.375,9.717-3.192,25.651-3.333,28.747a1.333,1.333,0,0,1-.871,1.2,13.475,13.475,0,0,1-4.561.811A11.406,11.406,0,0,1,627.725,429.3Z" transform="translate(-433.521 -271.616)" fill="#ee5849"/><path d="M676.74,417.965a1.329,1.329,0,0,1-.557-1.018l-.512-9.247a3.713,3.713,0,0,1,7.283-1.174l2.24,8.265a1.348,1.348,0,0,1-.946,1.653l-6.375,1.731A1.345,1.345,0,0,1,676.74,417.965Z" transform="translate(-473.34 -282.899)" fill="#ee5849"/><circle cx="7.354" cy="7.354" r="7.354" transform="translate(190.09 98.384)" fill="#ffb8b8"/><path d="M568.328,409.813a3.7,3.7,0,0,1-2.3-.791l-12.511-9.882a2.835,2.835,0,0,1-.3.09,3.294,3.294,0,1,1,2.452-3.959h0a3.052,3.052,0,0,1,.069.434l12.721,7.339,3.165-1.824,3.507,4.591-4.65,3.318A3.7,3.7,0,0,1,568.328,409.813Z" transform="translate(-384.721 -275.128)" fill="#ffb8b8"/><path d="M615.062,405.268a1.344,1.344,0,0,1,.389-1.1L622,397.626a3.713,3.713,0,0,1,5.74,4.644l-4.662,7.187a1.351,1.351,0,0,1-1.866.4l-5.54-3.593A1.345,1.345,0,0,1,615.062,405.268Z" transform="translate(-430.878 -277.799)" fill="#ee5849"/><path d="M638.971,336.609a1.2,1.2,0,0,0,1.677.12l.027-.021a13.31,13.31,0,0,0,3.794-4.956,8.776,8.776,0,0,0,0-7.187,9.975,9.975,0,0,0-4.219-3.893,6.929,6.929,0,0,0-2.051-.868,2.7,2.7,0,0,0-2.144.422,2.255,2.255,0,0,0-.859,2.165,6.7,6.7,0,0,0-2.938-2.2,3.392,3.392,0,0,0-2.261-.15,4.141,4.141,0,0,0-2.279,2.569,5.707,5.707,0,0,0-.374,2.776,3.33,3.33,0,0,0,1.279,2.3,3.585,3.585,0,0,0,2.979.27,23.876,23.876,0,0,1,2.995-.835,2.833,2.833,0,0,1,2.764,1.057,5.159,5.159,0,0,1,.617,2.294l.455,4.192a5.58,5.58,0,0,0,.383,1.749A.921.921,0,0,0,638.971,336.609Z" transform="translate(-439.461 -223.992)" fill="#2f2e41"/><g transform="translate(80.081 57.147)"><text transform="translate(0 72.188)" fill="#245e7e" font-size="19" font-family="RussoOne-Regular, Russo One"><tspan x="0" y="0">Kodario</tspan></text><rect width="21.369" height="21.369" rx="6" transform="translate(15.173 0.042)" fill="#122f3f"/><rect width="21.369" height="21.369" rx="5" transform="translate(15.173 23.971)" fill="#245e7e"/><path d="M414.663,267.55a4.832,4.832,0,0,1,3.507,1.063,3.95,3.95,0,0,1,1.084,2.36v14.8a3.428,3.428,0,0,1-.15,1.015,2.764,2.764,0,0,1-1,1.53c-3.764,2.593-12.975-1.611-16.008-5.528-3.659-4.722-5.252-11.271-3.7-13.565,1.252-1.851,3.893-1.617,5.86-1.608,2.665,0,5.33.045,8,0C412.995,267.631,413.83,267.553,414.663,267.55Z" transform="translate(-358.765 -243.681)" fill="#122f3f"/><path d="M397.6,192.434a4.835,4.835,0,0,1,1.063-3.51,3.95,3.95,0,0,1,2.36-1.084h14.8a3.53,3.53,0,0,1,1.015.15,2.752,2.752,0,0,1,1.53,1c2.593,3.761-1.611,12.972-5.528,16.008-4.722,3.656-11.268,5.252-13.565,3.7-1.851-1.249-1.614-3.893-1.608-5.857,0-2.665.045-5.33.015-8C397.681,194.1,397.6,193.278,397.6,192.434Z" transform="translate(-358.621 -187.84)" fill="#245e7e"/></g></svg>