<?xml version="1.0" standalone="no"?>
<!DOCTYPE svg PUBLIC "-//W3C//DTD SVG 20010904//EN"
 "http://www.w3.org/TR/2001/REC-SVG-20010904/DTD/svg10.dtd">
<svg version="1.0" xmlns="http://www.w3.org/2000/svg"
 width="586.000000pt" height="586.000000pt" viewBox="0 0 586.000000 586.000000"
 preserveAspectRatio="xMidYMid meet">
<metadata>
Created by potrace 1.11, written by Peter Selinger 2001-2013
</metadata>
<g transform="translate(0.000000,586.000000) scale(0.100000,-0.100000)"
fill="#000000" stroke="none">
<path d="M30 5848 c-20 -7 -20 -26 -20 -1368 0 -1341 0 -1361 20 -1368 26 -10
2702 -9 2718 1 18 12 18 2722 0 2734 -16 10 -2692 11 -2718 1z"/>
<path d="M3420 5841 c-136 -44 -225 -119 -283 -242 -52 -111 -66 -192 -60
-356 3 -76 5 -478 5 -893 1 -797 3 -847 48 -967 49 -131 142 -222 265 -259 37
-11 135 -24 205 -28 22 -1 199 14 240 20 148 22 428 107 575 174 152 69 262
124 308 154 32 20 59 36 62 36 10 0 124 77 210 141 158 118 321 304 456 519
444 708 533 1478 192 1662 -111 60 -63 58 -1162 57 -935 0 -1010 -1 -1061 -18z"/>
<path d="M5157 2784 c-2 -2 -370 -5 -818 -7 -728 -3 -821 -5 -879 -20 -92 -24
-117 -35 -185 -79 -95 -62 -151 -151 -176 -282 -9 -50 -13 -251 -5 -291 2 -11
7 -42 10 -68 4 -27 9 -59 12 -70 2 -12 7 -38 10 -57 12 -70 76 -278 121 -390
109 -274 276 -561 428 -737 121 -138 352 -322 540 -428 91 -51 269 -141 325
-164 30 -12 64 -26 75 -31 48 -22 238 -83 330 -105 150 -36 158 -37 330 -41
137 -3 171 -1 239 17 178 46 268 123 314 269 20 64 21 86 21 1070 1 1066 2
1035 -45 1137 -69 149 -198 230 -432 268 -48 8 -209 15 -215 9z"/>
<path d="M70 2772 c-24 -2 -48 -9 -52 -15 -4 -7 -8 -620 -8 -1364 0 -1278 1
-1353 17 -1361 14 -7 2642 -11 2716 -4 16 2 17 74 17 1367 0 1210 -2 1366 -15
1371 -16 6 -2594 12 -2675 6z"/>
</g>
</svg>
