<svg id="my-svg" xmlns="http://www.w3.org/2000/svg" viewBox="0 0 819 695.68">
  <g id="phone">
    <path id="fe7ea4cb-bc3a-4b8d-a4ea-d66dad23bcdf" d="M567.43,165.28h-3.82V60.59A60.6,60.6,0,0,0,503.01,0H281.21a60.6,60.6,0,0,0-60.6,60.59V634.94a60.6,60.6,0,0,0,60.59,60.59H503a60.59,60.59,0,0,0,60.59-60.59V239.8h3.83Z" fill="#3f3d56"/>
    <path id="eacd08e9-88f4-437e-9f6d-ef6f76b30d28" d="M505.46,15.76H476.51A21.52,21.52,0,0,1,456.6,45.38H329.53a21.5,21.5,0,0,1-19.91-29.62h-27A45.25,45.25,0,0,0,237.33,61h0V634.52a45.25,45.25,0,0,0,45.25,45.25H505.46a45.25,45.25,0,0,0,45.25-45.25h0V61a45.25,45.25,0,0,0-45.25-45.25Z" transform="translate(-0.33)" fill="#fff"/>
  </g>
  <g id="bushes">
    <path id="Path_5" data-name="Path 5" d="M67.75,672.29c41.3,26.49,92.9,25.15,142.51,18.94q10.4-1.31,20.61-2.81H231c.33,0,.66-.1,1-.13l4.2-.63-.29.65-.93,2c.33-.67.67-1.33,1-2,.1-.2.21-.4.31-.61,11.69-23.14,23.22-47.11,25.1-72.92,1.94-26.79-9.17-56.41-33.29-68.22a47.869,47.869,0,0,0-9.92-3.54c-1.42-.35-2.86-.61-4.31-.84-15.19-2.25-31.46,2.33-42.77,12.81-15,13.89-20.18,37.27-12.58,56.21-20.95-19.28-19-52.51-13.68-80.48s12-59.14-3.27-83.18c-8.5-13.38-22.61-21.2-38.11-23.82l-1.42-.22c-18-2.66-37.67,1.59-52.61,12.18C21.13,455.69,8,491.48,5,526,.07,581.57,20.79,642.17,67.75,672.29Z" fill="#f2f2f2"/>
    <path id="Path_6" data-name="Path 6" d="M75.81,583.21A125.73,125.73,0,0,0,86.4,618.15a109.409,109.409,0,0,0,18.43,26.76c15.22,16.41,34.81,28.31,55.8,35.82a201.522,201.522,0,0,0,49.63,10.5q10.4-1.31,20.61-2.81H231c.33,0,.66-.1,1-.13l4.2-.63-.29.65-.93,2c.33-.67.67-1.33,1-2,.1-.2.21-.4.31-.61A110.39,110.39,0,0,1,218.16,543c-1.42-.35-2.86-.61-4.31-.84a116.36,116.36,0,0,0-9.66,18.14,114.15,114.15,0,0,0-6,71.43,116.74,116.74,0,0,0,32.66,56.52c-1.33,0-2.68-.06-4-.11-25-.76-50.06-4.77-73.2-14.5-19.54-8.19-37.49-20.82-50.88-37.34-14.67-18.1-21.91-40.42-24.19-63.39-2.43-24.59-.59-49.84,3.75-74.12a309.719,309.719,0,0,1,22.16-72.2,2.23,2.23,0,0,0-1-2.89,1.87,1.87,0,0,0-1.42-.22,1.67,1.67,0,0,0-1,1c-1.27,2.85-2.52,5.7-3.71,8.58a313.449,313.449,0,0,0-20.52,74.78C73.13,532.61,71.88,558.39,75.81,583.21Z" fill="#fff"/>
    <path id="Path_7" data-name="Path 7" d="M795.84,683.51c-16.07,11.58-36.9,12.16-57,10.74q-4.21-.3-8.37-.68h-.4l-1.7-.16.13.25.42.79-.45-.78c0-.08-.1-.16-.14-.24-5.22-9.08-10.39-18.49-11.71-28.85-1.36-10.76,2.47-22.94,11.94-28.23a19,19,0,0,1,3.92-1.64c.56-.18,1.14-.31,1.72-.44a20.47,20.47,0,0,1,23.81,26.62c8-8.23,6.53-21.58,3.76-32.74s-6.13-23.58-.49-33.6c3.14-5.58,8.66-9,14.85-10.44l.57-.12a29.87,29.87,0,0,1,21.47,3.77c11.84,7.46,17.92,21.6,19.89,35.45C821.15,645.47,814.11,670.35,795.84,683.51Z" fill="#f2f2f2"/>
    <path id="Path_8" data-name="Path 8" d="M790.65,647.78a50.84,50.84,0,0,1-3.51,14.31,44,44,0,0,1-6.85,11.19,56.581,56.581,0,0,1-21.71,15.66,81.613,81.613,0,0,1-19.78,5.31q-4.21-.3-8.37-.68h-.4l-1.7-.16.13.25.42.79-.45-.78c0-.08-.1-.16-.14-.24a44.58,44.58,0,0,0,4.15-58.72c.56-.18,1.14-.31,1.72-.44a48,48,0,0,1,4.29,7.11,46,46,0,0,1,4,28.66,47.12,47.12,0,0,1-11.93,23.5l1.61-.13c10.05-.86,20.08-3,29.19-7.44a52.5,52.5,0,0,0,19.7-16.16c5.52-7.62,8-16.78,8.37-26.09a109.877,109.877,0,0,0-3.12-29.79,124.826,124.826,0,0,0-10.51-28.63.9.9,0,0,1,.36-1.19.81.81,0,0,1,.57-.12.69.69,0,0,1,.44.38c.57,1.12,1.14,2.24,1.68,3.38a126.482,126.482,0,0,1,9.9,29.7C790.63,627.32,791.69,637.68,790.65,647.78Z" fill="#fff"/>
  </g>
  <path id="floor" d="M818,695.61H1a1,1,0,0,1,0-2H818a1,1,0,0,1,0,2Z" fill="#3f3d56"/>
  <g id="boy">
    <path id="Path_10" data-name="Path 10" d="M639.61,684.3H627.35l-5.83-47.29h18.1Z" fill="#ffb8b8"/>
    <path id="Path_11" data-name="Path 11" d="M618.6,680.79h23.64v14.89H603.71a14.89,14.89,0,0,1,14.89-14.89Z" fill="#2f2e41"/>
    <path id="Path_12" data-name="Path 12" d="M685.61,684.3H673.35l-5.83-47.29h18.1Z" fill="#ffb8b8"/>
    <path id="Path_13" data-name="Path 13" d="M664.6,680.79h23.64v14.89H649.71a14.89,14.89,0,0,1,14.89-14.89Z" fill="#2f2e41"/>
    <path id="Path_14" data-name="Path 14" d="M684.12,543.46a10.75,10.75,0,0,1-3.23-14.85,10.452,10.452,0,0,1,1.16-1.49L674,412.56l23.25,2.25L697.87,527a10.8,10.8,0,0,1-13.75,16.46Z" fill="#ffb8b8"/>
    <path id="Path_15" data-name="Path 16" d="M639,660.47l-13.49-.64a4.5,4.5,0,0,1-4.29-4.46l-.94-136.56a4.49,4.49,0,0,1,4.47-4.53,3.9,3.9,0,0,1,.68.05l54,7.83a4.47,4.47,0,0,1,3.85,4.42l7,126.54a4.5,4.5,0,0,1-4.47,4.53H671.2a4.49,4.49,0,0,1-4.45-3.8l-9-57.07a3.5,3.5,0,0,0-6.94.13l-7.12,59.6a4.53,4.53,0,0,1-4.47,4Z" fill="#2f2e41"/>
    <path id="Path_16" data-name="Path 16" d="M648.54,526.59c-11.9-6.61-21.2-8.35-25.68-8.8a4.41,4.41,0,0,1-3.06-1.67,4.48,4.48,0,0,1-.93-3.4l12.94-96.05a33.21,33.21,0,0,1,19.36-26,32.32,32.32,0,0,1,31.4,2.46c.44.3.88.6,1.3.91a33.17,33.17,0,0,1,12.64,34.57c-7.93,32.45-10.66,85.66-11.13,96a4.45,4.45,0,0,1-2.91,4,45,45,0,0,1-15.23,2.71,38.091,38.091,0,0,1-18.7-4.73Z" fill="#ee5849"/>
    <path id="Path_17" data-name="Path 17" d="M679.25,451.05a4.44,4.44,0,0,1-1.86-3.4l-1.71-30.88A12.4,12.4,0,0,1,700,412.85l7.48,27.6a4.5,4.5,0,0,1-3.16,5.52l-21.29,5.78a4.49,4.49,0,0,1-3.78-.7Z" fill="#ee5849"/>
    <circle id="head" cx="24.56" cy="24.56" r="24.56" transform="translate(634.8 328.55)" fill="#ffb8b8"/>
    <path id="l-arm" d="M613.15,449.78a12.37,12.37,0,0,1-7.68-2.64l-41.78-33a9.491,9.491,0,0,1-1,.3,11,11,0,1,1,8.19-13.22h0a10.167,10.167,0,0,1,.23,1.45l42.48,24.51,10.57-6.09,11.71,15.33L620.34,447.5a12.341,12.341,0,0,1-7.19,2.28Z" fill="#ffb8b8"/>
    <path id="Path_19" data-name="Path 19" d="M615.08,425.68a4.49,4.49,0,0,1,1.3-3.66l21.86-21.86a12.4,12.4,0,0,1,19.17,15.51l-15.57,24a4.51,4.51,0,0,1-6.23,1.33l-18.5-12a4.49,4.49,0,0,1-2.03-3.32Z" fill="#ee5849"/>
    <path id="hair" d="M666.26,376.08a4,4,0,0,0,5.6.4l.09-.07a44.45,44.45,0,0,0,12.67-16.55c3.19-7.61,3.66-16.9,0-24-3.07-6-8.59-9.87-14.09-13a23.141,23.141,0,0,0-6.85-2.9,9,9,0,0,0-7.16,1.41,7.53,7.53,0,0,0-2.87,7.23,22.36,22.36,0,0,0-9.81-7.36,11.33,11.33,0,0,0-7.55-.5c-3.54,1.18-6.15,4.75-7.61,8.58a19.059,19.059,0,0,0-1.25,9.27,11.12,11.12,0,0,0,4.27,7.67c2.88,2,6.59,1.78,9.95.9s6.61-2.37,10-2.79,7.19.49,9.23,3.53c1.43,2.15,1.77,5,2.06,7.66l1.52,14a18.639,18.639,0,0,0,1.28,5.84,3.081,3.081,0,0,0,.52.68Z" fill="#2f2e41"/>
  </g>
  <g id="logo-g" transform="translate(1 3)">
    <path id="logo-text" d="M15.4,0H3.85V-44.912H15.4v17.644h5.774L31.182-44.912h12.19L30.8-22.777,43.308,0H31.118L21.173-18.286H15.4ZM81.227-9.624A10.188,10.188,0,0,1,78.5-2.085,10.188,10.188,0,0,1,70.961.642H56.2a10.188,10.188,0,0,1-7.539-2.727,10.188,10.188,0,0,1-2.727-7.539V-24.381a10.188,10.188,0,0,1,2.727-7.539A10.188,10.188,0,0,1,56.2-34.646H70.961A10.188,10.188,0,0,1,78.5-31.92a10.188,10.188,0,0,1,2.727,7.539ZM70-23.418a2.268,2.268,0,0,0-2.566-2.566h-7.7a2.268,2.268,0,0,0-2.566,2.566v12.832A2.268,2.268,0,0,0,59.733-8.02h7.7A2.268,2.268,0,0,0,70-10.586ZM111.061,0l-.642-3.208a22.952,22.952,0,0,1-6.191,2.919,19.683,19.683,0,0,1-5.357.93H95.983A9.452,9.452,0,0,1,88.99-1.989a9.452,9.452,0,0,1-2.631-6.993V-23.739a10.188,10.188,0,0,1,2.727-7.539A10.188,10.188,0,0,1,96.625-34h13.153V-44.912h11.228V0Zm-8.982-8.662a27.252,27.252,0,0,0,7.7-1.283v-15.4h-9.624a2.268,2.268,0,0,0-2.566,2.566v11.87a2.176,2.176,0,0,0,.642,1.6,2.176,2.176,0,0,0,1.6.642Zm38.817.321a27.252,27.252,0,0,0,7.7-1.283v-3.85h-9.3a2.176,2.176,0,0,0-1.6.642,2.176,2.176,0,0,0-.642,1.6v.642a2.176,2.176,0,0,0,.642,1.6,2.176,2.176,0,0,0,1.6.642Zm-11.87-25.022A196.669,196.669,0,0,1,150.2-34.646a9.452,9.452,0,0,1,6.993,2.631,9.452,9.452,0,0,1,2.631,6.993V0h-9.945l-.642-3.208a22.952,22.952,0,0,1-6.191,2.919,19.683,19.683,0,0,1-5.357.93h-2.246a9.452,9.452,0,0,1-6.993-2.631,9.452,9.452,0,0,1-2.631-6.993V-11.87a9.452,9.452,0,0,1,2.631-6.993,9.452,9.452,0,0,1,6.993-2.631h13.153V-24.06a2.176,2.176,0,0,0-.642-1.6,2.176,2.176,0,0,0-1.6-.642q-4.17,0-9.207.385t-8.116.577Zm56.14,8.662a20.35,20.35,0,0,0-8.341,1.925V0H165.6V-34h9.945l.642,4.17q5.518-4.812,11.549-4.812h2.887V-24.7Zm24.06-8.02V0H198V-24.06h-4.812v-8.662ZM198-45.554h11.228v8.982H198Zm52.29,35.93a10.188,10.188,0,0,1-2.727,7.539A10.188,10.188,0,0,1,240.023.642H225.266a10.188,10.188,0,0,1-7.539-2.727A10.188,10.188,0,0,1,215-9.624V-24.381a10.188,10.188,0,0,1,2.727-7.539,10.188,10.188,0,0,1,7.539-2.727h14.757a10.188,10.188,0,0,1,7.539,2.727,10.188,10.188,0,0,1,2.727,7.539ZM239.06-23.418a2.268,2.268,0,0,0-2.566-2.566h-7.7a2.268,2.268,0,0,0-2.566,2.566v12.832a2.268,2.268,0,0,0,2.566,2.566h7.7a2.268,2.268,0,0,0,2.566-2.566Z" transform="translate(267 427.8)" fill="#245e7e"/>
    <g id="logo" transform="translate(-0.1)">
      <rect id="Rectangle_4" data-name="Rectangle 4" width="71.36" height="71.36" rx="11.93" transform="translate(318.1 187.98)" fill="#122f3f"/>
      <rect id="Rectangle_5" data-name="Rectangle 5" width="71.36" height="71.36" rx="11.93" transform="translate(318.1 267.89)" fill="#245e7e"/>
      <path id="Path_21" data-name="Path 21" d="M454.1,267.55c4.32,0,8.63.57,11.71,3.55a13.19,13.19,0,0,1,3.62,7.88v49.44a11.448,11.448,0,0,1-.5,3.39,9.23,9.23,0,0,1-3.33,5.11c-12.57,8.66-43.33-5.38-53.46-18.46-12.22-15.77-17.54-37.64-12.36-45.3,4.18-6.18,13-5.4,19.57-5.37,8.9,0,17.8.15,26.7,0C448.53,267.82,451.32,267.56,454.1,267.55Z" fill="#122f3f"/>
      <path id="Path_22" data-name="Path 22" d="M397.6,203.18c0-4.33.57-8.64,3.55-11.72a13.19,13.19,0,0,1,7.88-3.62h49.44a11.79,11.79,0,0,1,3.39.5,9.19,9.19,0,0,1,5.11,3.34c8.66,12.56-5.38,43.32-18.46,53.46-15.77,12.21-37.63,17.54-45.3,12.35-6.18-4.17-5.39-13-5.37-19.56,0-8.9.15-17.8.05-26.7C397.87,208.75,397.61,206,397.6,203.18Z" fill="#245e7e"/>
    </g>
  </g>
</svg>
